<svg width="94" height="93" viewBox="0 0 94 93" fill="none" xmlns="http://www.w3.org/2000/svg">
<g clip-path="url(#clip0_1898_27878)">
<rect width="94" height="93" fill="white" fill-opacity="0.01"/>
<path d="M91.62 78.5267L79.3813 31.8579L32.4238 78.4845L79.3813 90.6791H79.4238L88.4754 92.9999C89.9405 92.9999 91.3457 92.422 92.3817 91.3933C93.4177 90.3645 93.9998 88.9693 93.9998 87.5144L91.62 78.5267Z" fill="#0052CC"/>
<path d="M93.0224 83.759L91.62 78.5267L79.3813 31.8579L32.4238 78.4845L79.3813 90.6791H79.4238L84.6508 92.0294C86.8437 91.9663 88.93 91.076 90.4852 89.5395C92.0404 88.0031 92.9477 85.9361 93.0224 83.759Z" fill="url(#paint0_linear_1898_27878)"/>
<path d="M63.8289 62.9698C78.2006 48.6994 83.6358 30.9593 75.9687 23.3462C68.3015 15.7331 50.4355 21.1299 36.0638 35.4003C21.6921 49.6708 16.2569 67.4109 23.9241 75.024C31.5912 82.6371 49.4572 77.2402 63.8289 62.9698Z" fill="url(#paint1_linear_1898_27878)"/>
<path d="M33.5288 76.9655C29.8742 76.9655 27.027 75.9528 24.9872 73.9274C21.7151 70.6783 21.0776 65.0662 23.2024 58.1461C25.3272 51.2259 30.3417 43.2087 37.1409 36.4573C46.4899 27.2164 57.6663 21.4355 66.3353 21.4355C69.9899 21.4355 72.8371 22.4483 74.8769 24.4315C78.1491 27.7228 78.7865 33.3348 76.6617 40.255C74.537 47.1751 69.5225 55.1924 62.7232 61.9015C53.3742 71.1846 42.1979 76.9655 33.5288 76.9655Z" fill="url(#paint2_linear_1898_27878)"/>
<path opacity="0.1" d="M76.6617 40.255C78.7865 33.3348 78.149 27.7228 74.8769 24.4315C72.8371 22.4483 69.9899 21.4355 66.3353 21.4355C59.9185 21.4355 52.0568 24.6002 44.6201 30.0857C46.2684 30.7797 47.7576 31.7989 48.9972 33.0816C52.3118 36.5839 52.6943 40.7613 53.0342 44.8543C53.3742 48.9473 53.6292 52.0276 55.9664 55.4877C57.6237 57.9351 60.0885 59.9183 63.2331 61.4374C69.7349 54.8126 74.5369 47.3017 76.6617 40.255Z" fill="url(#paint3_linear_1898_27878)"/>
<path d="M15.8085 69.5391L9.26416 65.5727C11.1575 62.4675 13.9592 60.0093 17.2958 58.5259C24.9875 55.1925 32.1267 58.6947 33.4866 59.4121L29.832 66.1212C29.0246 65.6571 24.775 63.5895 20.398 65.4883C18.4884 66.3429 16.8871 67.7562 15.8085 69.5391Z" fill="#0065FF"/>
<path d="M32.6789 24.6003C31.489 23.6298 25.4971 18.3553 25.6671 10.0848C25.7801 6.45162 26.9946 2.93681 29.1517 0L35.3561 4.47278C34.1149 6.1378 33.4178 8.14073 33.3588 10.2114C33.2313 14.9796 36.8009 18.1021 37.5234 18.6928L32.6789 24.6003Z" fill="#0065FF"/>
<path d="M25.5776 29.4846L21.2476 35.0676L36.8227 46.9776L41.1528 41.3945L25.5776 29.4846Z" fill="#00C7E5"/>
<path d="M68.1995 10.0037L61.3257 11.7561L66.2336 30.7363L73.1073 28.9838L68.1995 10.0037Z" fill="#00C7E5"/>
<path d="M3.39964 55.6144C5.27721 55.6144 6.79928 54.1031 6.79928 52.2387C6.79928 50.3744 5.27721 48.863 3.39964 48.863C1.52207 48.863 0 50.3744 0 52.2387C0 54.1031 1.52207 55.6144 3.39964 55.6144Z" fill="#FFBDAD"/>
<path d="M47.4675 55.9518C49.3451 55.9518 50.8671 54.4405 50.8671 52.5761C50.8671 50.7118 49.3451 49.2004 47.4675 49.2004C45.5899 49.2004 44.0679 50.7118 44.0679 52.5761C44.0679 54.4405 45.5899 55.9518 47.4675 55.9518Z" fill="#FFBDAD"/>
<path d="M21.9701 47.6816C20.9927 47.4706 20.6528 46.5423 20.3978 45.825C20.1428 45.1076 19.9729 44.6013 19.4629 44.4747C18.953 44.3481 18.5705 44.6857 17.9756 45.2342C17.3806 45.7828 16.7432 46.4579 15.7233 46.2047C14.7034 45.9515 14.4059 45.0654 14.1935 44.3481C13.981 43.6308 13.726 43.1244 13.2161 42.9978C12.7061 42.8712 12.3237 43.2088 11.7712 43.7573C11.2188 44.3059 10.4964 44.981 9.51897 44.7701C8.54157 44.5591 8.20161 43.5886 7.94663 42.8712C7.69166 42.1539 7.47918 41.6897 6.96924 41.5632L7.18172 40.7192C8.15911 40.9724 8.49908 41.8585 8.75405 42.6181C9.00902 43.3776 9.179 43.7995 9.68895 43.9261C10.1989 44.0527 10.5814 43.7152 11.1763 43.1666C11.7712 42.6181 12.4087 41.9429 13.4286 42.1961C14.4484 42.4493 14.7459 43.3354 14.9584 44.0527C15.1709 44.7701 15.4258 45.2764 15.9358 45.403C16.4457 45.5296 16.8282 45.192 17.3806 44.6435C17.9331 44.0949 18.6555 43.4198 19.6329 43.673C20.6103 43.9261 20.9503 44.8123 21.2052 45.5296C21.4602 46.2469 21.6727 46.7533 22.1826 46.8799L21.9701 47.6816Z" fill="#0065FF"/>
<path d="M57.0288 48.7787C56.5614 47.8504 57.0713 47.0065 57.4538 46.3735C57.8362 45.7406 58.0912 45.2342 57.8362 44.7701C57.5813 44.3059 57.1138 44.2215 56.3064 44.1793C55.499 44.1371 54.5641 44.0527 54.0966 43.1244C53.6292 42.1961 54.0966 41.3944 54.4791 40.7193C54.8616 40.0441 55.1165 39.6222 54.8616 39.1158C54.6066 38.6095 54.1391 38.6095 53.3317 38.5251C52.5243 38.4407 51.5894 38.3985 51.122 37.4702C50.6545 36.5419 51.122 35.7401 51.5469 35.065C51.9719 34.3899 52.1418 33.9679 51.9294 33.4616L52.6518 33.0818C53.1617 34.0101 52.6518 34.8118 52.2693 35.487C51.8869 36.1621 51.6319 36.6263 51.8869 37.0904C52.1418 37.5546 52.6093 37.639 53.4167 37.6812C54.2241 37.7233 55.159 37.8077 55.6265 38.7361C56.0939 39.6644 55.6265 40.4661 55.244 41.1412C54.8616 41.8164 54.6066 42.2805 54.8616 42.7447C55.1165 43.2088 55.584 43.251 56.3914 43.3354C57.1988 43.4198 58.0912 43.462 58.6012 44.3903C59.1111 45.3186 58.5587 46.1204 58.1762 46.7955C57.7937 47.4706 57.5388 47.8926 57.7937 48.3989L57.0288 48.7787Z" fill="white"/>
<path d="M15.464 19.0672L8.69385 20.0479L9.67905 26.7536L16.4492 25.7729L15.464 19.0672Z" fill="#FF7452"/>
<path d="M43.1246 63.7083L36.3545 64.689L37.3397 71.3947L44.1098 70.414L43.1246 63.7083Z" fill="#FF7452"/>
<path d="M53.9456 18.2457L49.5278 14.9521L46.2211 19.3253L50.6389 22.6189L53.9456 18.2457Z" fill="#FF7452"/>
</g>
<defs>
<linearGradient id="paint0_linear_1898_27878" x1="36.6819" y1="108.625" x2="109.207" y2="35.5815" gradientUnits="userSpaceOnUse">
<stop offset="0.44" stop-color="#0052CC"/>
<stop offset="0.78" stop-color="#2684FF"/>
</linearGradient>
<linearGradient id="paint1_linear_1898_27878" x1="23.9602" y1="75.004" x2="75.6068" y2="22.9866" gradientUnits="userSpaceOnUse">
<stop offset="0.13" stop-color="#B2D4FF"/>
<stop offset="0.25" stop-color="#B2D4FF"/>
<stop offset="0.67" stop-color="#2684FF"/>
</linearGradient>
<linearGradient id="paint2_linear_1898_27878" x1="25.0085" y1="73.9443" x2="74.5074" y2="24.0941" gradientUnits="userSpaceOnUse">
<stop stop-color="#4C9AFF"/>
<stop offset="0.27" stop-color="#4C9AFF"/>
<stop offset="0.67" stop-color="#0065FF"/>
</linearGradient>
<linearGradient id="paint3_linear_1898_27878" x1="61.2571" y1="61.8298" x2="61.2571" y2="6.04666" gradientUnits="userSpaceOnUse">
<stop stop-color="#091E42"/>
<stop offset="1" stop-color="#B3BAC5" stop-opacity="0"/>
</linearGradient>
<clipPath id="clip0_1898_27878">
<rect width="94" height="93" fill="white"/>
</clipPath>
</defs>
</svg>
