<svg width="213" height="54" viewBox="0 0 213 54" fill="none" xmlns="http://www.w3.org/2000/svg">
<mask id="path-1-inside-1_881_17" fill="white">
<path fill-rule="evenodd" clip-rule="evenodd" d="M0.485246 0.988585L16 11.7296V54H212.5V0H17.9733H16H1.11731e-06C-0.000490508 0.382144 0.161257 0.764377 0.485246 0.988585Z"/>
</mask>
<path fill-rule="evenodd" clip-rule="evenodd" d="M0.485246 0.988585L16 11.7296V54H212.5V0H17.9733H16H1.11731e-06C-0.000490508 0.382144 0.161257 0.764377 0.485246 0.988585Z" fill="white" fill-opacity="0.6"/>
<path d="M16 11.7296H17V11.2056L16.5692 10.9074L16 11.7296ZM0.485246 0.988585L1.05446 0.166392L1.0543 0.166283L0.485246 0.988585ZM16 54H15V55H16V54ZM212.5 54V55H213.5V54H212.5ZM212.5 0H213.5V-1H212.5V0ZM1.11731e-06 0V-1H-0.998713L-0.999998 -0.00128649L1.11731e-06 0ZM16.5692 10.9074L1.05446 0.166392L-0.0839644 1.81078L15.4308 12.5518L16.5692 10.9074ZM17 54V11.7296H15V54H17ZM212.5 53H16V55H212.5V53ZM211.5 0V54H213.5V0H211.5ZM17.9733 1H212.5V-1H17.9733V1ZM16 1H17.9733V-1H16V1ZM1.11731e-06 1H16V-1H1.11731e-06V1ZM1.0543 0.166283C1.04984 0.163197 1.03812 0.15391 1.02528 0.126695C1.01136 0.0972138 0.999933 0.0534503 1 0.00128649L-0.999998 -0.00128649C-1.00083 0.645227 -0.726946 1.36582 -0.0838058 1.81089L1.0543 0.166283Z" fill="#04BC04" mask="url(#path-1-inside-1_881_17)"/>
</svg>
