<svg width="380" height="330" viewBox="0 0 380 330" fill="none" xmlns="http://www.w3.org/2000/svg">
    <g filter="url(#filter0_d_751_8)">
        <mask id="path-1-inside-1_751_8" fill="white">
            <path fill-rule="evenodd" clip-rule="evenodd"
                d="M360.203 34.6606H360.203V15C359.473 14.9991 358.742 15.1761 358.313 15.5308L337.68 32.6004C337.444 32.7977 337.306 33.0282 337.281 33.2671C337.276 33.3157 337.276 33.3644 337.28 33.4128H20.2033V305H360.203V34.6606Z" />
        </mask>
        <path fill-rule="evenodd" clip-rule="evenodd"
            d="M360.203 34.6606H360.203V15C359.473 14.9991 358.742 15.1761 358.313 15.5308L337.68 32.6004C337.444 32.7977 337.306 33.0282 337.281 33.2671C337.276 33.3157 337.276 33.3644 337.28 33.4128H20.2033V305H360.203V34.6606Z"
            fill="white" />
        <path
            d="M360.203 34.6606H361.381V35.8387H360.203V34.6606ZM360.203 34.6606H359.025V33.4824H360.203V34.6606ZM360.203 15L360.205 13.8219L361.381 13.8233V15H360.203ZM358.313 15.5308L359.064 16.4384L359.064 16.4386L358.313 15.5308ZM337.68 32.6004L336.925 31.6958L336.929 31.6926L337.68 32.6004ZM337.281 33.2671L336.109 33.1458L336.109 33.1458L337.281 33.2671ZM337.28 33.4128L338.453 33.3069L338.569 34.591H337.28V33.4128ZM20.2033 33.4128H19.0252V32.2347H20.2033V33.4128ZM20.2033 305V306.178H19.0252V305H20.2033ZM360.203 305H361.381V306.178H360.203V305ZM360.203 35.8387H360.203V33.4824H360.203V35.8387ZM361.381 15V34.6606H359.025V15H361.381ZM357.562 14.6232C358.295 14.0165 359.35 13.8208 360.205 13.8219L360.202 16.1781C359.595 16.1774 359.188 16.3356 359.064 16.4384L357.562 14.6232ZM336.929 31.6926L357.562 14.623L359.064 16.4386L338.431 33.5082L336.929 31.6926ZM336.109 33.1458C336.174 32.522 336.522 32.032 336.925 31.6958L338.435 33.5049C338.402 33.5323 338.401 33.5413 338.412 33.5233C338.424 33.5033 338.446 33.4571 338.453 33.3883L336.109 33.1458ZM336.107 33.5188C336.095 33.3949 336.096 33.2701 336.109 33.1458L338.453 33.3883C338.456 33.3614 338.456 33.3339 338.453 33.3069L336.107 33.5188ZM337.28 34.591H20.2033V32.2347H337.28V34.591ZM21.3814 33.4128V305H19.0252V33.4128H21.3814ZM20.2033 303.822H360.203V306.178H20.2033V303.822ZM359.025 305V34.6606H361.381V305H359.025Z"
            fill="#D5D5D5" mask="url(#path-1-inside-1_751_8)" />
    </g>
    <defs>
        <filter id="filter0_d_751_8" x="0.567478" y="0.600526" width="379.271" height="329.271"
            filterUnits="userSpaceOnUse" color-interpolation-filters="sRGB">
            <feFlood flood-opacity="0" result="BackgroundImageFix" />
            <feColorMatrix in="SourceAlpha" type="matrix" values="0 0 0 0 0 0 0 0 0 0 0 0 0 0 0 0 0 0 127 0"
                result="hardAlpha" />
            <feOffset dy="5.23617" />
            <feGaussianBlur stdDeviation="9.81782" />
            <feComposite in2="hardAlpha" operator="out" />
            <feColorMatrix type="matrix" values="0 0 0 0 0 0 0 0 0 0 0 0 0 0 0 0 0 0 0.25 0" />
            <feBlend mode="normal" in2="BackgroundImageFix" result="effect1_dropShadow_751_8" />
            <feBlend mode="normal" in="SourceGraphic" in2="effect1_dropShadow_751_8" result="shape" />
        </filter>
    </defs>
</svg>