<svg width="340" height="640" viewBox="0 0 340 640" fill="none" xmlns="http://www.w3.org/2000/svg">
<g filter="url(#filter0_d_99_17857)">
<mask id="path-1-inside-1_99_17857" fill="white">
<path fill-rule="evenodd" clip-rule="evenodd" d="M319.996 55.677H320V15C319.355 14.9977 318.709 15.3638 318.331 16.0982L300.126 51.4146C299.917 51.8228 299.795 52.2997 299.773 52.7939C299.769 52.8949 299.769 52.9958 299.773 53.0962H20.0005V615H319.996V55.677Z"/>
</mask>
<path fill-rule="evenodd" clip-rule="evenodd" d="M319.996 55.677H320V15C319.355 14.9977 318.709 15.3638 318.331 16.0982L300.126 51.4146C299.917 51.8228 299.795 52.2997 299.773 52.7939C299.769 52.8949 299.769 52.9958 299.773 53.0962H20.0005V615H319.996V55.677Z" fill="white"/>
<path d="M320 55.677H321.177V56.854H320V55.677ZM319.996 55.677H318.819V54.5H319.996V55.677ZM320 15L320.004 13.823L321.177 13.8272V15H320ZM318.331 16.0982L319.377 16.6373L319.377 16.6375L318.331 16.0982ZM300.126 51.4146L299.078 50.879L299.079 50.8753L300.126 51.4146ZM299.773 52.7939L300.949 52.8458L300.949 52.8458L299.773 52.7939ZM299.773 53.0962L300.949 53.0507L300.996 54.2732H299.773V53.0962ZM20.0005 53.0962H18.8235V51.9192H20.0005V53.0962ZM20.0005 615V616.177H18.8235V615H20.0005ZM319.996 615H321.173V616.177H319.996V615ZM320 56.854H319.996V54.5H320V56.854ZM321.177 15V55.677H318.823V15H321.177ZM317.285 15.5591C317.85 14.462 318.884 13.819 320.004 13.823L319.996 16.177C319.826 16.1764 319.569 16.2655 319.377 16.6373L317.285 15.5591ZM299.079 50.8753L317.285 15.5589L319.377 16.6375L301.172 51.9539L299.079 50.8753ZM298.598 52.742C298.626 52.0928 298.786 51.449 299.078 50.879L301.174 51.9502C301.048 52.1966 300.964 52.5066 300.949 52.8458L298.598 52.742ZM298.597 53.1417C298.591 53.0089 298.592 52.8755 298.598 52.742L300.949 52.8458C300.946 52.9142 300.946 52.9826 300.949 53.0507L298.597 53.1417ZM299.773 54.2732H20.0005V51.9192H299.773V54.2732ZM21.1776 53.0962V615H18.8235V53.0962H21.1776ZM20.0005 613.823H319.996V616.177H20.0005V613.823ZM318.819 615V55.677H321.173V615H318.819Z" fill="#D5D5D5" mask="url(#path-1-inside-1_99_17857)"/>
</g>
<defs>
<filter id="filter0_d_99_17857" x="0.383928" y="0.614165" width="339.233" height="639.234" filterUnits="userSpaceOnUse" color-interpolation-filters="sRGB">
<feFlood flood-opacity="0" result="BackgroundImageFix"/>
<feColorMatrix in="SourceAlpha" type="matrix" values="0 0 0 0 0 0 0 0 0 0 0 0 0 0 0 0 0 0 127 0" result="hardAlpha"/>
<feOffset dy="5.23121"/>
<feGaussianBlur stdDeviation="9.80852"/>
<feComposite in2="hardAlpha" operator="out"/>
<feColorMatrix type="matrix" values="0 0 0 0 0 0 0 0 0 0 0 0 0 0 0 0 0 0 0.25 0"/>
<feBlend mode="normal" in2="BackgroundImageFix" result="effect1_dropShadow_99_17857"/>
<feBlend mode="normal" in="SourceGraphic" in2="effect1_dropShadow_99_17857" result="shape"/>
</filter>
</defs>
</svg>
