<svg width="419" height="615" viewBox="0 0 419 615" fill="none" xmlns="http://www.w3.org/2000/svg">
<g filter="url(#filter0_d_33_34)">
<mask id="path-1-inside-1_33_34" fill="white">
<path fill-rule="evenodd" clip-rule="evenodd" d="M34.1545 35C34.1126 34.8699 34.0529 34.7459 33.9769 34.6319L21.1723 15.5921C20.9067 15.1969 20.4539 14.9996 20.0011 15V35H20V590H399V35H34.1545Z"/>
</mask>
<path fill-rule="evenodd" clip-rule="evenodd" d="M34.1545 35C34.1126 34.8699 34.0529 34.7459 33.9769 34.6319L21.1723 15.5921C20.9067 15.1969 20.4539 14.9996 20.0011 15V35H20V590H399V35H34.1545Z" fill="#C4EBBF"/>
<path d="M34.1545 35L33.0343 35.3612L33.2973 36.177H34.1545V35ZM33.9769 34.6319L34.9562 33.979L34.9536 33.975L33.9769 34.6319ZM21.1723 15.5921L20.1955 16.2487L20.1956 16.2489L21.1723 15.5921ZM20.0011 15L20 13.823L18.8241 13.8241V15H20.0011ZM20.0011 35V36.177H21.1781V35H20.0011ZM20 35V33.823H18.823V35H20ZM20 590H18.823V591.177H20V590ZM399 590V591.177H400.177V590H399ZM399 35H400.177V33.823H399V35ZM35.2747 34.6388C35.1999 34.4066 35.0931 34.1843 34.9562 33.979L32.9976 35.2848C33.0128 35.3076 33.0253 35.3333 33.0343 35.3612L35.2747 34.6388ZM34.9536 33.975L22.149 14.9352L20.1956 16.2489L33.0002 35.2887L34.9536 33.975ZM22.1491 14.9354C21.6296 14.1626 20.7779 13.8222 20 13.823L20.0023 16.177C20.06 16.177 20.1088 16.19 20.1423 16.2063C20.173 16.2212 20.1873 16.2365 20.1955 16.2487L22.1491 14.9354ZM18.8241 15V35H21.1781V15H18.8241ZM20 36.177H20.0011V33.823H20V36.177ZM21.177 590V35H18.823V590H21.177ZM399 588.823H20V591.177H399V588.823ZM397.823 35V590H400.177V35H397.823ZM34.1545 36.177H399V33.823H34.1545V36.177Z" fill="#04BC04" mask="url(#path-1-inside-1_33_34)"/>
</g>
<defs>
<filter id="filter0_d_33_34" x="0.382952" y="0.614165" width="418.234" height="614.234" filterUnits="userSpaceOnUse" color-interpolation-filters="sRGB">
<feFlood flood-opacity="0" result="BackgroundImageFix"/>
<feColorMatrix in="SourceAlpha" type="matrix" values="0 0 0 0 0 0 0 0 0 0 0 0 0 0 0 0 0 0 127 0" result="hardAlpha"/>
<feOffset dy="5.23121"/>
<feGaussianBlur stdDeviation="9.80852"/>
<feComposite in2="hardAlpha" operator="out"/>
<feColorMatrix type="matrix" values="0 0 0 0 0 0 0 0 0 0 0 0 0 0 0 0 0 0 0.25 0"/>
<feBlend mode="normal" in2="BackgroundImageFix" result="effect1_dropShadow_33_34"/>
<feBlend mode="normal" in="SourceGraphic" in2="effect1_dropShadow_33_34" result="shape"/>
</filter>
</defs>
</svg>
